<?xml version="1.0" encoding="UTF-8"?>
<svg xmlns="http://www.w3.org/2000/svg" xmlns:xlink="http://www.w3.org/1999/xlink" version="1.1" id="Layer_1" x="0px" y="0px" style="enable-background:new 0 0 92.58 50;" xml:space="preserve" viewBox="3.72 5.47 85.15 39.1">
<style type="text/css">
	.st0{fill:#FFFFFF;}
</style>
<g>
	<path class="st0" d="M6.12,28.12c0,1.58,0,3.05,0,4.52c0,0.88-0.04,1.77-0.03,2.65c0.02,0.97,0.28,1.23,1.24,1.35   c0.13,0.02,0.34-0.07,0.34,0.15c0,0.25-0.23,0.17-0.38,0.17c-1.08,0.01-2.16,0.01-3.25,0c-0.12,0-0.28,0.05-0.31-0.12   c-0.04-0.23,0.16-0.18,0.29-0.21c1.05-0.22,1.4-0.59,1.51-1.71c0.08-0.75,0.09-1.51,0.11-2.27c0.05-1.64,0.09-3.28,0.11-4.92   c0.02-1.07-0.11-1.21-1.16-1.44c-0.11-0.02-0.23-0.01-0.22-0.17c0-0.15,0.13-0.16,0.23-0.16c0.74,0,1.48,0,2.22,0   c0.24,0,0.27,0.2,0.34,0.36c1.3,2.71,2.6,5.42,3.9,8.14c0.06,0.12,0.08,0.28,0.28,0.37c0.47-0.95,0.94-1.89,1.41-2.84   c0.91-1.86,1.85-3.71,2.67-5.61c0.13-0.3,0.29-0.44,0.64-0.42c0.61,0.03,1.22,0,1.84,0.01c0.13,0,0.33-0.05,0.32,0.18   c-0.01,0.18-0.18,0.13-0.3,0.15c-0.9,0.11-1.11,0.33-1.09,1.26c0.06,2.61,0.13,5.23,0.21,7.84c0.03,0.9,0.31,1.14,1.28,1.26   c0.15,0.02,0.44-0.11,0.42,0.18c-0.02,0.26-0.29,0.14-0.45,0.14c-1.32,0.01-2.63,0.01-3.95,0c-0.14,0-0.39,0.09-0.41-0.12   c-0.03-0.3,0.25-0.18,0.4-0.19c0.95-0.06,1.23-0.33,1.22-1.26c-0.03-2.41-0.07-4.83-0.11-7.24c0-0.09-0.02-0.17-0.04-0.3   c-0.27,0.17-0.33,0.42-0.43,0.64c-1.29,2.79-2.78,5.5-3.92,8.36c-0.05,0.12-0.07,0.26-0.23,0.25c-0.18-0.01-0.21-0.17-0.27-0.3   c-1.27-2.79-2.65-5.52-4.03-8.26C6.49,28.42,6.46,28.27,6.12,28.12z"></path>
	<path class="st0" d="M32.04,25.96c1.04,0.04,2.09-0.1,3.13,0.15c1.39,0.33,2.16,1.16,2.27,2.46c0.09,1.11-0.61,2.19-1.82,2.67   c-0.45,0.18-0.38,0.33-0.17,0.64c0.74,1.06,1.45,2.15,2.21,3.21c0.51,0.7,1.04,1.4,1.99,1.55c0.11,0.02,0.22,0.07,0.2,0.2   c-0.02,0.15-0.15,0.13-0.25,0.13c-0.67,0-1.33-0.01-2,0.01c-0.3,0.01-0.41-0.2-0.55-0.37c-1.16-1.39-2.08-2.94-3.05-4.46   c-0.22-0.34-1.32-0.59-1.65-0.38c-0.15,0.09-0.12,0.25-0.12,0.39c0,1.14-0.02,2.27,0,3.41c0.01,0.73,0.25,0.95,1.01,1.08   c0.15,0.02,0.43-0.1,0.41,0.19c-0.02,0.21-0.26,0.13-0.41,0.13c-1.17,0.01-2.34,0.01-3.52,0c-0.14,0-0.39,0.09-0.39-0.14   c-0.01-0.22,0.25-0.15,0.39-0.17c0.75-0.12,1.04-0.44,1.05-1.19c0.01-2.65,0.01-5.3,0-7.95c0-0.84-0.26-1.12-1.11-1.22   c-0.13-0.02-0.33,0.05-0.33-0.17c0-0.22,0.21-0.15,0.34-0.15C30.45,25.96,31.24,25.96,32.04,25.96z M32.2,28.83   c0,0.4,0,0.79,0,1.19c0,1.33,0.17,1.47,1.51,1.24c0.11-0.02,0.21-0.03,0.32-0.06c1.17-0.29,1.86-1.25,1.83-2.53   c-0.03-1.23-0.68-1.98-1.91-2.24c-0.47-0.1-0.93-0.05-1.39,0c-0.28,0.03-0.36,0.15-0.36,0.41C32.21,27.5,32.21,28.17,32.2,28.83z"></path>
	<path class="st0" d="M50.72,36.96c-0.56,0-1.12,0-1.68,0c-0.13,0-0.33,0.06-0.34-0.15c-0.01-0.17,0.17-0.17,0.29-0.17   c0.81,0.01,0.91-0.32,0.65-1.06c-0.29-0.83-0.64-1.64-0.95-2.47c-0.08-0.23-0.22-0.29-0.44-0.29c-1.1,0.01-2.2,0.01-3.3,0   c-0.23,0-0.36,0.06-0.44,0.29c-0.25,0.77-0.55,1.53-0.76,2.3c-0.22,0.8-0.01,1.08,0.8,1.22c0.13,0.02,0.33-0.04,0.31,0.19   c-0.02,0.19-0.19,0.12-0.31,0.12c-0.86,0.01-1.73,0.01-2.59,0c-0.12,0-0.28,0.05-0.31-0.12c-0.04-0.18,0.11-0.19,0.24-0.22   c0.56-0.13,0.8-0.55,1-1.04c1.24-3.13,2.49-6.26,3.73-9.38c0.08-0.2,0.09-0.46,0.43-0.47c0.36,0,0.39,0.26,0.48,0.49   c1.24,3.09,2.47,6.18,3.7,9.28c0.25,0.63,0.6,1.11,1.34,1.15c0.12,0.01,0.29,0.02,0.25,0.2c-0.03,0.17-0.2,0.12-0.32,0.12   C51.9,36.97,51.31,36.96,50.72,36.96z M46.58,27.71c-0.58,1.52-1.1,2.88-1.62,4.25c-0.11,0.3,0.12,0.27,0.3,0.27   c0.68,0,1.37,0,2.05,0c1.04,0,1.04,0,0.66-0.99C47.53,30.11,47.09,28.99,46.58,27.71z"></path>
	<path class="st0" d="M72.26,36.74c0.57-0.27,0.44-0.7,0.29-1.12c-0.3-0.83-0.62-1.65-0.93-2.48c-0.08-0.21-0.19-0.32-0.43-0.32   c-1.12,0.01-2.24,0.01-3.35,0c-0.2,0-0.34,0.04-0.41,0.25c-0.25,0.81-0.61,1.58-0.78,2.41c-0.16,0.77,0.01,1.02,0.78,1.16   c0.13,0.02,0.34-0.03,0.32,0.18c-0.02,0.21-0.22,0.13-0.35,0.13c-0.81,0.01-1.62,0.01-2.43,0c-0.14,0-0.36,0.1-0.4-0.15   c-0.03-0.22,0.19-0.18,0.31-0.22c0.44-0.14,0.67-0.45,0.83-0.86c1.27-3.18,2.54-6.35,3.81-9.53c0.08-0.2,0.09-0.46,0.42-0.48   c0.36-0.02,0.4,0.26,0.48,0.48c1.22,3.06,2.44,6.12,3.66,9.18c0.26,0.64,0.57,1.22,1.38,1.25c0.12,0,0.28,0.01,0.25,0.19   c-0.03,0.18-0.2,0.13-0.31,0.12C74.36,36.89,73.31,36.81,72.26,36.74z M69.5,27.89c-0.55,1.42-1.03,2.7-1.52,3.97   c-0.08,0.21-0.09,0.33,0.19,0.33c0.9-0.01,1.8,0,2.7-0.01c0.16,0,0.3-0.01,0.2-0.24C70.56,30.64,70.06,29.34,69.5,27.89z"></path>
	<path class="st0" d="M59,34.82c0.41-1.06,0.83-2.12,1.23-3.19c0.52-1.38,1.1-2.74,1.5-4.16c0.28-1.01,0.15-1.19-0.85-1.42   c-0.1-0.02-0.24,0.01-0.23-0.15c0.01-0.14,0.13-0.16,0.24-0.16c0.92,0,1.84,0,2.76,0c0.1,0,0.19,0.02,0.22,0.12   c0.03,0.13-0.04,0.2-0.17,0.22c-0.66,0.11-0.87,0.64-1.08,1.16c-1.23,3.08-2.45,6.15-3.68,9.23c-0.09,0.22-0.09,0.5-0.45,0.52   c-0.4,0.02-0.41-0.3-0.5-0.53c-1.23-3.06-2.45-6.12-3.66-9.18c-0.26-0.66-0.61-1.19-1.4-1.23c-0.11,0-0.23-0.02-0.23-0.17   c0.01-0.14,0.12-0.16,0.23-0.16c1.21,0,2.41,0,3.62,0c0.11,0,0.24,0.01,0.26,0.14c0.02,0.19-0.15,0.16-0.26,0.19   c-0.89,0.21-0.97,0.28-0.64,1.15c0.94,2.47,1.91,4.93,2.87,7.4C58.81,34.69,58.84,34.79,59,34.82z"></path>
	<path class="st0" d="M81.98,36.96c-1.17,0-2.34,0-3.52,0c-0.15,0-0.41,0.11-0.4-0.19c0-0.25,0.23-0.17,0.37-0.19   c0.78-0.09,1.05-0.36,1.05-1.15c0.01-2.65,0.01-5.3,0-7.95c0-0.8-0.24-1.05-1.05-1.14c-0.15-0.02-0.37,0.05-0.38-0.19   c-0.01-0.26,0.22-0.19,0.37-0.18c1.21,0.05,2.41,0.07,3.62,0c0.16-0.01,0.42-0.08,0.41,0.2c-0.01,0.24-0.24,0.15-0.39,0.16   c-0.92,0.06-1.09,0.24-1.09,1.16c0,2.56,0,5.12,0,7.68c0,0.89,0.29,1.2,1.17,1.26c0.58,0.04,1.15,0.03,1.73-0.03   c1.06-0.1,1.78-0.61,2.14-1.63c0.06-0.16,0.06-0.47,0.35-0.36c0.23,0.09,0.05,0.32,0.02,0.48c-0.11,0.57-0.27,1.12-0.36,1.69   c-0.06,0.35-0.22,0.41-0.55,0.4C84.32,36.95,83.15,36.96,81.98,36.96C81.98,36.96,81.98,36.96,81.98,36.96z"></path>
	<path class="st0" d="M21.06,44.54c-0.21-0.17-0.14-0.35-0.11-0.49c0.79-3.35,1.29-6.75,1.91-10.13c0.33-1.8,0.61-3.61,0.84-5.43   c0.12-0.96,1.05-1.29,1.84-1.05c0.48,0.14,0.58,0.53,0.42,0.99c-0.25,0.7-0.54,1.38-0.73,2.09c-0.31,1.13-0.7,2.23-0.92,3.39   c-0.18,0.95-0.33,1.93-0.68,2.82c-0.29,0.74-0.5,1.47-0.64,2.25c-0.09,0.47-0.21,1-0.42,1.41c-0.18,0.36-0.19,0.76-0.42,1.09   c-0.42,0.6-0.4,1.37-0.69,2.02C21.31,43.86,21.09,44.15,21.06,44.54z"></path>
	<path class="st0" d="M26.44,24.28c-0.06,0.49-0.23,0.91-0.56,1.26c-0.41,0.44-0.86,0.84-1.33,1.21c-0.08,0.06-0.16,0.17-0.28,0.11   c-0.12-0.06-0.09-0.18-0.07-0.28c0.15-0.83,0.28-1.66,0.45-2.49c0.09-0.44,0.5-0.59,1.24-0.53C26.37,23.6,26.35,23.98,26.44,24.28z   "></path>
	<g>
		<path class="st0" d="M88.85,36.31c0,0.5-0.39,0.9-0.88,0.9c-0.5,0-0.91-0.4-0.91-0.9c0-0.49,0.41-0.9,0.9-0.9    C88.45,35.42,88.85,35.81,88.85,36.31z M87.19,36.31c0,0.44,0.33,0.78,0.76,0.78c0.43,0,0.77-0.34,0.77-0.77    c0-0.43-0.34-0.77-0.77-0.77C87.54,35.54,87.19,35.88,87.19,36.31z"></path>
		<path class="st0" d="M87.76,36.78c-0.05,0.03-0.1,0.01-0.16,0.01c0-0.32,0-0.64,0-0.96c0.16-0.02,0.32-0.02,0.48,0    c0.14,0.01,0.24,0.07,0.27,0.22c0.02,0.14-0.03,0.23-0.18,0.29c0.19,0.1,0.19,0.27,0.17,0.44c-0.04,0.03-0.09,0.02-0.13,0.01    c-0.08-0.38-0.09-0.39-0.42-0.36C87.74,36.54,87.79,36.66,87.76,36.78z M87.77,36.29c0.15-0.01,0.29,0.04,0.39-0.1    c0.04-0.05,0.04-0.13-0.01-0.18c-0.11-0.12-0.25-0.08-0.38-0.07C87.77,36.06,87.77,36.17,87.77,36.29z"></path>
	</g>
	<g>
		<path class="st0" d="M43.16,22.12c-0.59,0-1.15,0-1.76,0c0.76-1.83,1.5-3.65,2.27-5.5c-7.14,0.46-13.95,2.09-20.47,4.92    c-0.07-0.11-0.04-0.21-0.04-0.33c1.89-1.06,3.83-2.01,5.85-2.84c2.01-0.83,4.07-1.52,6.2-2.06c0-0.91-0.02-1.81,0.01-2.7    c0.02-0.47-0.12-0.85-0.38-1.24c-1.42-2.15-2.82-4.31-4.23-6.46c-0.04-0.06-0.1-0.11-0.09-0.21c0.57,0,1.13,0,1.72,0    c1.24,1.98,2.48,3.98,3.75,6.02c1.26-2.02,2.51-4.02,3.76-6.02c0.58,0,1.14,0,1.76,0c-0.32,0.5-0.63,0.98-0.94,1.45    c-1.22,1.87-2.44,3.73-3.66,5.6c-0.09,0.14-0.13,0.27-0.13,0.44c0.01,0.9,0,1.81,0,2.76c2.53-0.54,5.05-0.87,7.61-1.03    c1.3-3.16,2.6-6.3,3.9-9.45c0.26,0,0.51,0,0.8,0c1.3,3.16,2.61,6.32,3.93,9.53c2.5,0.2,4.99,0.57,7.47,1.16c0-3.06,0-6.11,0-9.19    c-1.27,0-2.54,0-3.83,0c0-0.44,0-0.84,0-1.26c3.11,0,6.2,0,9.32,0c0,0.41,0,0.81,0,1.24c-1.27,0-2.55,0-3.84,0    c0,3.22,0,6.41,0,9.63c3.85,1.07,7.49,2.66,10.96,4.63c0.04,0.11,0.04,0.21-0.01,0.35c-6.18-2.68-12.61-4.3-19.37-4.84    c0.75,1.81,1.48,3.6,2.23,5.41c-0.59,0-1.15,0-1.75,0c-0.73-1.82-1.47-3.67-2.21-5.53c-2.2-0.13-4.38-0.15-6.59-0.05    C44.65,18.39,43.91,20.25,43.16,22.12z M48.68,8.29c-0.88,2.21-1.74,4.36-2.61,6.55c1.77-0.07,3.48-0.03,5.24,0.04    C50.43,12.67,49.57,10.51,48.68,8.29z"></path>
		<path class="st0" d="M24.15,5.69c0.55,0,1.06,0,1.59,0c0,4.2,0,8.4,0,12.61c-0.52,0-1.03,0-1.58,0c0-2.06,0-4.12,0-6.19    c-2.31,0-4.6,0-6.9,0c0,2.07,0,4.12,0,6.19c-0.54,0-1.06,0-1.59,0c0-4.19,0-8.38,0-12.6c0.51,0,1.03,0,1.57,0c0,1.69,0,3.39,0,5.1    c2.31,0,4.6,0,6.92,0C24.15,9.11,24.15,7.41,24.15,5.69z"></path>
		<path class="st0" d="M75.52,18.31c-0.56,0-1.07,0-1.61,0c0-3.78,0-7.55,0-11.35c-1.3,0-2.57,0-3.86,0c0-0.44,0-0.84,0-1.27    c3.1,0,6.2,0,9.31,0c0,0.41,0,0.82,0,1.25c-1.28,0-2.54,0-3.84,0C75.52,10.74,75.52,14.51,75.52,18.31z"></path>
		<path class="st0" d="M84.89,7.26c0,0.89-0.69,1.59-1.56,1.6c-0.89,0.01-1.61-0.7-1.61-1.59c0-0.87,0.72-1.59,1.59-1.59    C84.18,5.68,84.89,6.38,84.89,7.26z M81.95,7.26c-0.01,0.77,0.59,1.38,1.35,1.38c0.76,0,1.37-0.6,1.37-1.36    c0-0.76-0.61-1.37-1.36-1.37C82.57,5.9,81.96,6.51,81.95,7.26z"></path>
		<path class="st0" d="M82.96,8.1c-0.09,0.05-0.18,0.03-0.28,0.02c0-0.57,0-1.13,0-1.71c0.29-0.04,0.57-0.03,0.86-0.01    c0.24,0.02,0.43,0.12,0.48,0.39c0.04,0.25-0.06,0.41-0.33,0.52c0.33,0.18,0.33,0.48,0.3,0.78c-0.07,0.06-0.15,0.04-0.23,0.01    c-0.14-0.68-0.15-0.68-0.74-0.65C82.93,7.66,83.01,7.88,82.96,8.1z M82.99,7.24c0.26-0.02,0.52,0.07,0.69-0.17    c0.07-0.1,0.07-0.23-0.01-0.32c-0.19-0.21-0.44-0.13-0.68-0.12C82.99,6.83,82.99,7.01,82.99,7.24z"></path>
	</g>
</g>
</svg>
