<?xml version="1.0" encoding="UTF-8"?>
<svg xmlns="http://www.w3.org/2000/svg" xmlns:xlink="http://www.w3.org/1999/xlink" version="1.1" id="Layer_1" x="0px" y="0px" style="enable-background:new 0 0 46.13 50;" xml:space="preserve" viewBox="3.53 7.22 39.05 35.55">
<style type="text/css">
	.st0{fill:#FFFFFF;}
</style>
<g>
	<path class="st0" d="M19.73,7.23c0.01,0.07,0.12,0.03,0.12,0.09c0.06,0.16-0.03,0.26-0.1,0.35c-0.33,0.43-0.41,0.91-0.22,1.42   c0.15,0.4,0.34,0.79,0.46,1.19c0.21,0.71,0.19,1.44,0.17,2.18c-0.03,1.23-0.32,2.4-0.63,3.57c-0.37,1.4-0.46,2.83-0.45,4.27   c0.01,0.96,0.13,1.9,0.44,2.82c0.51,1.52,1.53,2.6,2.93,3.34c1.24,0.65,2.57,1.04,3.91,1.37c2.19,0.54,4.4,0.93,6.6,1.43   c0.93,0.21,1.85,0.43,2.81,0.65c-0.18,0.25-0.39,0.42-0.58,0.61c-0.2,0.2-0.44,0.36-0.63,0.57c-0.41,0.43-0.93,0.58-1.49,0.65   c-1.76,0.22-3.52,0.2-5.28,0.1c-1.09-0.06-2.18-0.14-3.25-0.38c-0.88-0.19-1.71-0.54-2.57-0.81c-1.56-0.49-3.15-0.87-4.8-0.85   c-1.09,0.01-2.14,0.19-3.16,0.57c-0.06,0.02-0.11,0.04-0.19,0.07c-0.19-0.43-0.33-0.87-0.46-1.32c-0.42-1.51-0.4-3.03-0.16-4.56   c0.35-2.26,1.28-4.28,2.55-6.16c0.68-1,1.38-2,1.94-3.07c0.4-0.77,0.78-1.56,0.81-2.45c0.01-0.27,0.02-0.55-0.05-0.82   c-0.09-0.37-0.29-0.65-0.62-0.84c-0.1-0.06-0.2-0.08-0.33-0.05c-0.39,0.09-0.78,0.14-1.18,0.12c-0.19-0.01-0.36-0.05-0.53-0.15   c-0.36-0.2-0.44-0.62-0.19-0.94c0.23-0.3,0.24-0.34,0.16-0.64c-0.24-0.18-0.45,0.15-0.74,0.04c-0.22-0.25,0.05-0.53,0.02-0.76   c0.09-0.12,0.18-0.06,0.25-0.11c-0.01-0.14-0.13-0.27-0.03-0.45c0.21-0.17,0.46-0.08,0.7-0.01c0.18,0.05,0.35,0.11,0.51-0.05   c0.01-0.01,0.04-0.02,0.06-0.02c0.52-0.03,0.97-0.23,1.39-0.54c0.02-0.02,0.06-0.01,0.08-0.02c0.09,0.06,0.08,0.15,0.11,0.23   c0.1,0.25,0.35,0.33,0.55,0.15c0.14-0.13,0.27-0.27,0.39-0.42c0.11-0.14,0.27-0.23,0.4-0.36C19.55,7.23,19.64,7.23,19.73,7.23z"></path>
	<path class="st0" d="M35.86,29.51c-2.25-0.53-4.51-1.06-6.76-1.63c-0.22-0.06-0.36-0.19-0.43-0.4c-0.55-1.68-0.96-3.39-1.19-5.14   c-0.18-1.3-0.26-2.61-0.22-3.93c0.07-2.34,0.49-4.61,1.46-6.75c0.15-0.33,0.37-0.55,0.72-0.69c2.56-1.06,5.12-2.12,7.68-3.18   c0.1-0.04,0.19-0.13,0.35-0.06c-0.33,0.28-0.63,0.54-0.94,0.79c-1.51,1.28-2.7,2.8-3.44,4.64c-0.54,1.35-0.8,2.75-0.86,4.19   c-0.08,2.05,0.28,4.02,0.87,5.97c0.64,2.08,1.54,4.04,2.65,5.91c0.05,0.08,0.09,0.17,0.13,0.26C35.88,29.49,35.87,29.5,35.86,29.51   z"></path>
	<path class="st0" d="M28.11,11.53c-0.36,0.92-0.64,1.82-0.86,2.74c-0.44,1.81-0.6,3.64-0.55,5.5c0.07,2.6,0.59,5.13,1.3,7.63   c0.02,0.07,0.04,0.13,0.07,0.23c-0.38-0.08-0.73-0.15-1.09-0.22c-0.67-0.12-1.32-0.33-1.99-0.43c-0.27-0.04-0.38-0.24-0.44-0.47   c-0.15-0.57-0.3-1.13-0.43-1.71c-0.43-1.88-0.69-3.78-0.66-5.72c0.03-1.87,0.29-3.7,1.08-5.43c0.26-0.56,0.61-0.96,1.2-1.17   c0.76-0.28,1.5-0.6,2.24-0.91C28.01,11.55,28.04,11.54,28.11,11.53z"></path>
	<path class="st0" d="M24.06,13.25c-0.29,0.8-0.58,1.6-0.77,2.44c-0.39,1.69-0.48,3.4-0.36,5.12c0.14,1.94,0.53,3.84,1.01,5.72   c0.01,0.04,0.02,0.09,0.03,0.16c-0.98-0.35-1.79-0.89-2.43-1.68c-0.71-0.87-1.09-1.9-1.34-2.98c-0.54-2.27-0.27-4.46,0.69-6.56   c0.39-0.85,0.99-1.47,1.92-1.75c0.42-0.13,0.82-0.32,1.23-0.49C24.04,13.23,24.05,13.24,24.06,13.25z"></path>
	<path class="st0" d="M33.58,32.14c-0.47,0.3-0.9,0.63-1.34,0.96c-0.82,0.63-1.8,0.85-2.79,1.02c-2.38,0.4-4.68,0.02-6.94-0.76   c-0.89-0.31-1.77-0.67-2.65-0.99c-1.17-0.43-2.38-0.66-3.62-0.77c-0.8-0.07-1.6-0.08-2.4-0.02c-0.98,0.07-1.9,0.36-2.8,0.74   c-0.08,0.03-0.16,0.1-0.26,0.04c1.45-0.91,2.98-1.63,4.67-1.96c1.66-0.33,3.28-0.17,4.89,0.3c1.35,0.39,2.66,0.9,4.01,1.27   c1.65,0.46,3.32,0.63,5.03,0.57c1.33-0.05,2.65-0.19,3.96-0.39C33.43,32.15,33.5,32.15,33.58,32.14z"></path>
	<path class="st0" d="M21.17,40.04c0.15-0.05,0.29-0.02,0.46-0.02c0.46,0.59,0.92,1.18,1.42,1.83c0-0.64,0-1.22,0-1.81   c0.18,0,0.32,0,0.48,0c0,0.89,0,1.78,0,2.68c-0.14,0-0.26,0-0.41,0c-0.47-0.61-0.95-1.22-1.45-1.87c0,0.64,0,1.24,0,1.85   c-0.18,0.05-0.33,0.04-0.5,0.01C21.17,41.81,21.17,40.93,21.17,40.04z"></path>
	<path class="st0" d="M14.99,42.72c-0.13,0-0.26,0-0.4,0c-0.47-0.61-0.95-1.23-1.47-1.88c0,0.65,0,1.25,0,1.86   c-0.17,0.05-0.32,0.03-0.48,0.02c0-0.9,0-1.78,0-2.68c0.14-0.04,0.29-0.01,0.44-0.02c0.46,0.59,0.92,1.19,1.42,1.83   c0-0.64,0-1.21,0-1.79c0.17-0.06,0.32-0.02,0.48-0.03C14.99,40.92,14.99,41.81,14.99,42.72z"></path>
	<path class="st0" d="M16.12,42.72c0-0.91,0-1.79,0-2.71c0.55,0.05,1.11-0.09,1.64,0.12c0.54,0.22,0.87,0.78,0.81,1.33   c-0.08,0.65-0.49,1.12-1.11,1.22C17.02,42.76,16.58,42.72,16.12,42.72z M16.61,42.27c0.23,0,0.43,0.02,0.63,0   c0.47-0.05,0.76-0.35,0.81-0.79c0.05-0.44-0.18-0.82-0.57-0.96c-0.29-0.1-0.58-0.06-0.87-0.06C16.61,41.07,16.61,41.66,16.61,42.27   z"></path>
	<path class="st0" d="M32.49,40.45c-0.52,0-1.02,0-1.53,0c0,0.23,0,0.45,0,0.68c0.44,0,0.88,0,1.33,0c0,0.15,0,0.28,0,0.44   c-0.44,0-0.88,0-1.33,0c-0.03,0.24-0.02,0.47-0.01,0.71c0.51,0,1.01,0,1.53,0c0,0.15,0,0.28,0,0.43c-0.66,0-1.32,0-2,0   c0-0.88,0-1.77,0-2.68c0.66,0,1.32,0,1.99,0C32.51,40.16,32.48,40.29,32.49,40.45z"></path>
	<path class="st0" d="M12.02,42.71c-0.19,0-0.35,0-0.52,0c-0.09-0.21-0.18-0.42-0.27-0.63c-0.42,0-0.84,0-1.27,0   c-0.09,0.21-0.18,0.42-0.28,0.64c-0.16,0-0.31,0-0.5,0c0.4-0.92,0.79-1.81,1.18-2.71c0.15,0,0.29,0,0.46,0   C11.22,40.89,11.61,41.78,12.02,42.71z M11.04,41.63c-0.15-0.36-0.3-0.68-0.45-1.04c-0.16,0.37-0.3,0.7-0.44,1.04   C10.45,41.63,10.73,41.63,11.04,41.63z"></path>
	<path class="st0" d="M24.21,42.72C24.61,41.79,25,40.9,25.4,40c0.15,0,0.29,0,0.46,0c0.39,0.89,0.79,1.79,1.19,2.71   c-0.19,0-0.34,0-0.51,0c-0.09-0.21-0.19-0.43-0.28-0.64c-0.42,0-0.83,0-1.26,0c-0.09,0.21-0.19,0.42-0.28,0.64   C24.55,42.72,24.4,42.72,24.21,42.72z M25.17,41.63c0.32,0,0.6,0,0.9,0c-0.15-0.35-0.29-0.68-0.45-1.04   C25.47,40.95,25.32,41.28,25.17,41.63z"></path>
	<path class="st0" d="M42.57,42.71c-0.19,0-0.34,0-0.51,0c-0.09-0.2-0.18-0.42-0.28-0.64c-0.41,0-0.83,0-1.26,0   c-0.09,0.2-0.18,0.41-0.28,0.63c-0.16,0-0.31,0-0.51,0c0.4-0.91,0.8-1.81,1.19-2.71c0.16,0,0.3,0,0.46,0   C41.77,40.89,42.16,41.79,42.57,42.71z M41.15,40.59c-0.16,0.37-0.3,0.7-0.44,1.04c0.31,0,0.59,0,0.89,0   C41.45,41.28,41.31,40.95,41.15,40.59z"></path>
	<path class="st0" d="M37.98,41.86c0,0.29,0,0.56,0,0.84c-0.17,0-0.32,0-0.48,0c0-0.89,0-1.78,0-2.68c0.42,0,0.84-0.02,1.26,0.01   c0.51,0.04,0.83,0.4,0.84,0.89c0,0.47-0.32,0.84-0.81,0.9C38.53,41.86,38.27,41.85,37.98,41.86z M37.99,40.46c0,0.33,0,0.64,0,0.96   c0.2,0,0.38,0,0.56,0c0.03,0,0.06,0,0.09-0.01c0.3-0.05,0.47-0.24,0.45-0.51c-0.01-0.25-0.19-0.42-0.49-0.44   C38.4,40.45,38.2,40.46,37.99,40.46z"></path>
	<path class="st0" d="M5.58,40.33c-0.09,0.12-0.17,0.23-0.25,0.35c-0.17-0.11-0.34-0.21-0.54-0.25c-0.11-0.02-0.23-0.04-0.34-0.01   c-0.14,0.04-0.27,0.1-0.29,0.28c-0.01,0.18,0.09,0.27,0.24,0.32c0.22,0.07,0.45,0.13,0.68,0.21c0.47,0.16,0.64,0.42,0.58,0.85   c-0.05,0.36-0.36,0.63-0.79,0.67c-0.49,0.04-0.93-0.09-1.31-0.43c0.1-0.12,0.19-0.22,0.28-0.34c0.21,0.15,0.41,0.29,0.66,0.33   c0.15,0.03,0.3,0.03,0.45-0.03c0.13-0.05,0.21-0.14,0.22-0.29c0.01-0.15-0.08-0.23-0.2-0.28c-0.16-0.06-0.33-0.1-0.5-0.16   c-0.12-0.04-0.25-0.08-0.37-0.12c-0.3-0.11-0.45-0.34-0.45-0.65c0-0.33,0.16-0.57,0.45-0.71C4.55,39.87,5.21,39.98,5.58,40.33z"></path>
	<path class="st0" d="M34.56,42.32c0.1-0.12,0.2-0.23,0.29-0.34c0.21,0.15,0.42,0.3,0.68,0.33c0.04,0,0.07,0.01,0.11,0.02   c0.29,0.02,0.5-0.09,0.53-0.29c0.04-0.19-0.08-0.31-0.4-0.41c-0.2-0.06-0.4-0.1-0.59-0.17c-0.38-0.14-0.51-0.34-0.5-0.73   c0.01-0.33,0.19-0.58,0.53-0.7c0.44-0.16,1.03-0.03,1.37,0.29c-0.08,0.11-0.16,0.23-0.25,0.35c-0.18-0.11-0.35-0.21-0.54-0.26   c-0.14-0.03-0.27-0.03-0.41,0.01c-0.14,0.05-0.22,0.14-0.23,0.28c0,0.13,0.07,0.23,0.2,0.28c0.25,0.08,0.5,0.15,0.74,0.23   c0.39,0.14,0.56,0.35,0.57,0.69c0.01,0.36-0.18,0.67-0.53,0.77C35.56,42.86,35.03,42.72,34.56,42.32z"></path>
	<path class="st0" d="M8.72,40.39c-0.1,0.12-0.19,0.23-0.3,0.35c-0.27-0.22-0.56-0.4-0.94-0.32c-0.22,0.05-0.39,0.16-0.53,0.34   c-0.28,0.38-0.24,0.97,0.1,1.3c0.37,0.36,0.83,0.33,1.37-0.1c0.1,0.09,0.2,0.19,0.3,0.29c-0.39,0.57-1.34,0.68-1.93,0.23   c-0.63-0.48-0.73-1.45-0.22-2.04C7.12,39.83,8.08,39.79,8.72,40.39z"></path>
	<path class="st0" d="M28.49,42.06c0.28-0.71,0.54-1.38,0.8-2.04c0.17,0,0.33,0,0.53,0c-0.38,0.92-0.75,1.81-1.12,2.71   c-0.14,0-0.27,0-0.44,0c-0.37-0.88-0.74-1.78-1.12-2.7c0.19,0,0.35,0,0.54,0C27.94,40.68,28.2,41.35,28.49,42.06z"></path>
	<path class="st0" d="M26.06,11.96c-0.15-1.23-0.11-2.41,0.29-3.61c0.27,0.37,0.4,0.75,0.45,1.15c0.09,0.63-0.01,1.26-0.05,1.9   c-0.01,0.12-0.09,0.19-0.18,0.25C26.41,11.75,26.24,11.84,26.06,11.96z"></path>
	<path class="st0" d="M19.47,40.03c0.16,0,0.31,0,0.47,0c0,0.9,0,1.78,0,2.68c-0.16,0-0.31,0-0.47,0   C19.47,41.82,19.47,40.93,19.47,40.03z"></path>
	<path class="st0" d="M24.03,13.23c0.01-0.01,0.03-0.01,0.08-0.04c-0.04,0.04-0.04,0.06-0.05,0.07   C24.05,13.24,24.04,13.23,24.03,13.23z"></path>
	<path class="st0" d="M35.89,29.48c0.01,0.01,0.02,0.02,0.05,0.03c-0.03,0-0.05,0-0.07-0.01C35.87,29.5,35.88,29.49,35.89,29.48z"></path>
</g>
</svg>
