<svg xmlns="http://www.w3.org/2000/svg" xmlns:xlink="http://www.w3.org/1999/xlink" version="1.1" id="Layer_1" x="0px" y="0px" style="enable-background:new 0 0 118.73 50;" xml:space="preserve" viewBox="4.3 7.97 110.15 34.07">
<style type="text/css">
	.st0{fill:#fff;}
</style>
<g>
	<path class="st0" d="M8.28,42.01c-0.1-0.34-0.2-0.68-0.32-1.02c-0.28-0.85-0.56-1.71-0.85-2.56c-0.41-1.24-0.82-2.48-1.24-3.71   c-0.18-0.52-0.36-1.03-0.57-1.54c-0.13-0.34-0.36-0.57-0.76-0.56c-0.2,0-0.27-0.09-0.2-0.3c0.06,0,0.14-0.01,0.21-0.01   c1.04,0,2.08,0,3.12,0c0.1,0,0.21-0.03,0.22,0.13c0.01,0.16-0.09,0.17-0.2,0.19C7.5,32.64,7.3,32.65,7.11,32.7   c-0.36,0.09-0.43,0.22-0.32,0.58c0.16,0.52,0.32,1.03,0.49,1.55c0.33,1.06,0.67,2.11,1,3.17c0.18,0.57,0.36,1.15,0.54,1.72   c0.01,0.03,0.03,0.05,0.08,0.13c0.1-0.27,0.18-0.49,0.26-0.71c0.26-0.77,0.52-1.55,0.78-2.32c0.3-0.91,0.61-1.82,0.91-2.73   c0.14-0.43,0.3-0.85,0.45-1.28c0.06-0.18,0.22-0.2,0.37-0.22c0.03,0,0.08,0.07,0.1,0.12c0.39,1.05,0.78,2.1,1.17,3.15   c0.47,1.28,0.95,2.56,1.42,3.84c0.01,0.04,0.03,0.07,0.08,0.17c0.08-0.22,0.14-0.38,0.19-0.55c0.34-1.12,0.7-2.24,1.02-3.37   c0.25-0.86,0.47-1.74,0.69-2.61c0.11-0.41,0.01-0.56-0.41-0.63c-0.19-0.03-0.39-0.06-0.58-0.08c-0.13-0.02-0.19-0.09-0.15-0.21   c0.02-0.05,0.11-0.11,0.16-0.11c0.88-0.01,1.77,0,2.65,0c0.09,0,0.18-0.01,0.18,0.13c0,0.1,0,0.2-0.14,0.21   c-0.5,0.04-0.76,0.34-0.91,0.79c-0.42,1.28-0.86,2.55-1.28,3.82c-0.26,0.76-0.51,1.53-0.75,2.29c-0.23,0.71-0.43,1.43-0.66,2.15   c-0.02,0.08-0.11,0.14-0.17,0.2c-0.04,0.04-0.1,0.08-0.14,0.12c-0.08,0-0.16,0-0.24,0c0-0.03,0-0.07-0.02-0.1   c-0.31-0.86-0.63-1.71-0.95-2.57c-0.44-1.18-0.87-2.35-1.31-3.53c-0.11-0.31-0.23-0.61-0.37-0.97c-0.06,0.13-0.1,0.2-0.13,0.28   c-0.27,0.72-0.53,1.44-0.79,2.17c-0.46,1.31-0.92,2.63-1.38,3.94c-0.1,0.29-0.13,0.63-0.48,0.77c0,0,0,0.01,0,0.02   C8.42,42.01,8.35,42.01,8.28,42.01z"/>
	<path class="st0" d="M63.53,42.01c-0.22-0.06-0.44-0.11-0.66-0.17c-1.58-0.41-2.66-1.36-3.18-2.93c-0.19-0.57-0.27-1.17-0.27-1.76   c0.01-2.02,0.95-3.78,3.02-4.64c1.13-0.47,2.31-0.55,3.51-0.26c1.56,0.37,2.65,1.28,3.21,2.78c0.32,0.86,0.39,1.76,0.27,2.67   c-0.25,1.95-1.28,3.3-3.13,3.98c-0.32,0.12-0.67,0.17-1,0.25c-0.06,0.02-0.12,0.05-0.18,0.08C64.59,42.01,64.06,42.01,63.53,42.01z    M60.91,36.93c-0.01,0.67,0.08,1.41,0.34,2.13c0.33,0.9,0.84,1.65,1.71,2.11c0.6,0.32,1.25,0.43,1.92,0.38   c0.9-0.06,1.65-0.42,2.2-1.13c0.68-0.87,0.88-1.91,0.91-2.98c0.02-0.74-0.08-1.47-0.31-2.18c-0.22-0.68-0.55-1.32-1.07-1.82   c-0.72-0.68-1.57-0.97-2.56-0.89c-1.1,0.09-1.91,0.61-2.47,1.53C61.08,34.93,60.9,35.87,60.91,36.93z"/>
	<path class="st0" d="M109.56,42.01c-0.25-0.05-0.5-0.11-0.75-0.16c-0.88-0.17-1.68-0.51-2.36-1.1c-0.53-0.47-0.9-1.04-1.13-1.71   c-0.33-0.95-0.38-1.93-0.24-2.91c0.25-1.67,1.17-2.86,2.72-3.53c1.19-0.51,2.44-0.6,3.71-0.43c0.57,0.07,1.12,0.18,1.64,0.43   c0.08,0.04,0.18,0.15,0.19,0.23c0.07,0.57,0.13,1.14,0.18,1.72c0.02,0.27-0.05,0.32-0.33,0.3c-0.1-0.3-0.18-0.61-0.3-0.9   c-0.35-0.81-1.01-1.23-1.85-1.35c-0.81-0.11-1.61-0.06-2.37,0.28c-0.95,0.42-1.56,1.14-1.89,2.11c-0.22,0.64-0.32,1.29-0.29,1.96   c0.05,1.23,0.31,2.39,1.14,3.36c0.69,0.81,1.59,1.23,2.65,1.26c0.56,0.01,1.12-0.04,1.68-0.09c0.32-0.02,0.33-0.05,0.33-0.37   c0-0.48,0-0.96-0.01-1.45c-0.01-0.35-0.18-0.59-0.45-0.65c-0.17-0.03-0.35-0.05-0.52-0.07c-0.17-0.02-0.34-0.02-0.51-0.04   c0-0.09,0-0.17,0-0.27c0.17,0,0.33,0,0.49,0c0.98,0,1.97,0,2.95,0c0.06,0,0.12,0.01,0.18,0.01c0,0.1,0,0.19,0,0.29   c-0.09,0-0.18-0.01-0.26-0.01c-0.41,0.01-0.52,0.12-0.53,0.52c-0.01,0.4-0.01,0.8-0.01,1.2c0,0.3,0.02,0.3,0.3,0.38   c0.07,0.02,0.13,0.12,0.15,0.2c0.01,0.04-0.06,0.13-0.11,0.15c-0.59,0.17-1.17,0.33-1.76,0.48c-0.27,0.07-0.55,0.12-0.83,0.18   C110.75,42.01,110.15,42.01,109.56,42.01z"/>
	<path class="st0" d="M84.73,42.01c-0.09-0.03-0.19-0.07-0.29-0.08c-1.27-0.18-2.4-0.63-3.24-1.64c-0.39-0.47-0.64-1.01-0.8-1.6   c-0.22-0.78-0.24-1.59-0.15-2.38c0.19-1.67,1.04-2.91,2.58-3.63c1.23-0.58,2.54-0.7,3.87-0.5c0.49,0.07,0.96,0.21,1.44,0.33   c0.23,0.06,0.41,0.15,0.42,0.46c0.03,0.55,0.1,1.11,0.15,1.66c0.01,0.14-0.06,0.19-0.18,0.22c-0.12,0.03-0.18,0-0.21-0.14   c-0.07-0.27-0.14-0.55-0.26-0.81c-0.29-0.66-0.81-1.07-1.5-1.23c-1.06-0.25-2.11-0.16-3.07,0.39c-0.78,0.44-1.26,1.13-1.54,1.97   c-0.28,0.83-0.32,1.68-0.23,2.53c0.12,1.15,0.5,2.21,1.36,3.03c0.66,0.62,1.45,0.96,2.35,0.97c0.57,0.01,1.14-0.04,1.7-0.08   c0.32-0.02,0.35-0.07,0.34-0.39c-0.01-0.49-0.02-0.99-0.03-1.48c-0.01-0.37-0.2-0.57-0.57-0.61c-0.3-0.03-0.61-0.06-0.92-0.1   c0-0.08,0-0.16,0-0.25c1.21,0,2.41,0,3.6,0c0.04,0.26,0.04,0.26-0.21,0.28c-0.44,0.02-0.5,0.06-0.53,0.51   c-0.03,0.43-0.03,0.85-0.03,1.28c0,0.16,0.04,0.3,0.27,0.31c0.07,0,0.14,0.12,0.18,0.2c0.01,0.03-0.08,0.13-0.13,0.15   c-0.76,0.27-1.54,0.48-2.34,0.57c-0.08,0.01-0.16,0.05-0.25,0.08C85.92,42.01,85.32,42.01,84.73,42.01z"/>
	<path class="st0" d="M61.18,7.99c0,0.12,0,0.2,0,0.29c0,5.2,0,10.4,0,15.6c0,0.33,0,0.33,0.34,0.33c1.73,0,3.45,0,5.18,0   c0.28,0,0.3,0,0.27,0.27c-0.1,0.85-0.34,1.64-1.05,2.19c-0.4,0.31-0.86,0.48-1.36,0.48c-2.01,0.01-4.02,0-6.03,0   c-0.08,0-0.16-0.01-0.26-0.01c0-0.1,0-0.17,0-0.25c0-6.21,0-12.41,0-18.62c0-0.28,0-0.29,0.29-0.29c0.8,0,1.6,0,2.41,0   C61.01,7.99,61.08,7.99,61.18,7.99z"/>
	<path class="st0" d="M55.23,8c0,0.09,0.01,0.17,0.01,0.25c0,6.21,0,12.42,0,18.63c0,0.15-0.03,0.22-0.2,0.21   c-1.2-0.05-2.11-0.69-2.5-1.9c-0.2-0.64-0.24-1.29-0.24-1.95c0-5,0-9.99,0-14.99c0-0.27,0-0.27,0.26-0.27c0.82,0,1.64,0,2.47,0   C55.09,7.99,55.15,8,55.23,8z"/>
	<path class="st0" d="M67,8.01c0,4.47,0,8.94,0,13.43c-0.93,0-1.85,0-2.79,0c0-4.48,0-8.95,0-13.43C65.15,8.01,66.07,8.01,67,8.01z"/>
	<path class="st0" d="M23.86,37c-0.78,0-1.56,0-2.34,0c-0.17,0-0.24,0.04-0.23,0.22c0.01,1.2,0,2.4,0.02,3.6   c0.01,0.43,0.09,0.65,0.65,0.65c0.07,0,0.15,0.02,0.22,0.02c0.13,0,0.19,0.05,0.18,0.18c-0.01,0.15-0.11,0.13-0.2,0.13   c-1.03,0-2.05,0-3.08,0c-0.09,0-0.2,0.02-0.2-0.13c-0.01-0.13,0.05-0.18,0.18-0.18c0.11,0,0.22-0.02,0.32-0.03   c0.36-0.02,0.5-0.14,0.56-0.49c0.02-0.15,0.02-0.31,0.02-0.47c0-2.39,0-4.78-0.01-7.17c0-0.56-0.18-0.71-0.66-0.71   c-0.07,0-0.15-0.02-0.22-0.02c-0.12,0-0.2-0.02-0.2-0.17c0-0.16,0.12-0.14,0.22-0.14c1.03,0,2.05,0,3.08,0   c0.1,0,0.19,0.01,0.19,0.14c0,0.13-0.06,0.16-0.18,0.16c-0.08,0-0.16,0.02-0.24,0.02c-0.48,0.03-0.62,0.15-0.64,0.65   c-0.02,0.58-0.02,1.17-0.02,1.75c0,0.45,0,0.91,0,1.36c0,0.15,0.04,0.22,0.21,0.22c1.59,0,3.18,0,4.77,0c0.15,0,0.2-0.05,0.2-0.2   c-0.01-1.03-0.01-2.05-0.02-3.08c0-0.13-0.03-0.27-0.07-0.4c-0.06-0.19-0.21-0.28-0.4-0.29c-0.16-0.01-0.31-0.03-0.47-0.03   c-0.12-0.01-0.16-0.07-0.16-0.19c0-0.12,0.07-0.12,0.16-0.12c1.05,0,2.09,0,3.14,0c0.1,0,0.18,0.01,0.18,0.14   c0,0.12-0.04,0.18-0.17,0.17c-0.1,0-0.2,0.02-0.3,0.02c-0.43,0.02-0.53,0.15-0.58,0.58c-0.03,0.23-0.01,0.47-0.01,0.71   c0,2.29,0,4.59,0.01,6.88c0,0.47,0.16,0.68,0.66,0.66c0.08,0,0.16,0.02,0.24,0.02c0.13,0,0.16,0.08,0.14,0.17   c-0.02,0.06-0.09,0.14-0.14,0.14c-1.06,0.01-2.12,0.01-3.18,0.01c-0.1,0-0.17-0.04-0.14-0.14c0.02-0.06,0.07-0.15,0.12-0.16   c0.15-0.03,0.31-0.03,0.47-0.04c0.27-0.02,0.41-0.15,0.45-0.41c0.03-0.21,0.06-0.43,0.06-0.65c0.01-1.06,0-2.12,0.01-3.18   c0-0.19-0.06-0.24-0.24-0.24C25.44,37,24.65,37,23.86,37C23.86,37,23.86,37,23.86,37z"/>
	<path class="st0" d="M72.32,32.3c0.6,0,1.2-0.02,1.79,0c0.61,0.02,1.23,0.02,1.82,0.13c1.5,0.29,2.66,1.05,3.21,2.54   c0.29,0.79,0.34,1.61,0.24,2.45c-0.1,0.85-0.34,1.64-0.85,2.34c-0.47,0.64-1.08,1.1-1.79,1.43c-0.84,0.38-1.72,0.56-2.64,0.57   c-1.38,0.02-2.77,0.02-4.15,0.04c-0.09,0-0.18,0.01-0.18-0.13c0-0.11,0.03-0.18,0.16-0.19c0.14,0,0.28-0.02,0.43-0.03   c0.28-0.02,0.42-0.15,0.45-0.43c0.03-0.33,0.07-0.66,0.07-0.99c0.01-1.96,0.01-3.92,0-5.88c0-0.37-0.03-0.74-0.07-1.11   c-0.02-0.25-0.18-0.38-0.43-0.41c-0.14-0.01-0.27-0.03-0.41-0.03c-0.13,0-0.21-0.04-0.2-0.19c0.01-0.15,0.11-0.12,0.2-0.12   C70.76,32.3,71.54,32.3,72.32,32.3z M72.17,37.04c0,1.29,0,2.58,0,3.87c0,0.18,0.05,0.26,0.23,0.28c0.5,0.06,1.01,0.16,1.51,0.17   c0.58,0.01,1.16-0.08,1.71-0.29c1.07-0.4,1.74-1.16,2.08-2.23c0.22-0.7,0.28-1.42,0.24-2.15c-0.03-0.66-0.15-1.3-0.43-1.9   c-0.41-0.89-1.1-1.47-2.03-1.78c-0.6-0.2-1.22-0.27-1.84-0.27c-0.4,0-0.79,0.08-1.19,0.12c-0.27,0.03-0.27,0.03-0.27,0.31   C72.17,34.46,72.17,35.75,72.17,37.04z"/>
	<path class="st0" d="M96.22,34.58c-0.01,0.11-0.02,0.18-0.02,0.24c0,1.81,0,3.61,0,5.42c0,0.25,0.04,0.5,0.09,0.74   c0.06,0.3,0.29,0.45,0.62,0.49c0.13,0.02,0.27,0,0.4,0.04c0.06,0.02,0.13,0.1,0.15,0.16c0.03,0.11-0.06,0.14-0.16,0.14   c-0.91,0-1.82,0-2.73,0c-0.11,0-0.19-0.01-0.19-0.15c0-0.13,0.07-0.16,0.18-0.16c0.07,0,0.15-0.02,0.22-0.02   c0.39-0.01,0.62-0.19,0.68-0.57c0.05-0.31,0.09-0.63,0.09-0.95c0.01-2.48,0-4.96,0-7.43c0-0.09-0.05-0.2,0.11-0.27   c0.17-0.07,0.25-0.03,0.36,0.09c1.15,1.28,2.3,2.56,3.48,3.82c0.78,0.84,1.6,1.66,2.4,2.48c0.28,0.29,0.57,0.58,0.85,0.88   c0.04,0.04,0.08,0.07,0.15,0.13c0.01-0.11,0.02-0.18,0.02-0.25c0-1.66,0.01-3.33,0-4.99c0-0.41-0.03-0.81-0.08-1.21   c-0.04-0.33-0.3-0.53-0.63-0.56c-0.14-0.01-0.27-0.03-0.4-0.03c-0.13,0-0.21-0.03-0.2-0.18c0.01-0.16,0.13-0.13,0.23-0.13   c0.79,0,1.58,0,2.36,0c0.13,0,0.26-0.01,0.39,0c0.05,0.01,0.13,0.07,0.12,0.11c-0.01,0.07-0.05,0.15-0.1,0.18   c-0.06,0.04-0.16,0.03-0.24,0.04c-0.52,0.05-0.69,0.2-0.74,0.7c-0.04,0.36-0.07,0.73-0.07,1.1c-0.01,2.4,0,4.79,0,7.19   c0,0.15-0.06,0.21-0.18,0.27c-0.13,0.06-0.18-0.04-0.25-0.11c-0.87-0.9-1.74-1.8-2.61-2.71c-0.99-1.04-1.98-2.09-2.96-3.13   c-0.4-0.42-0.79-0.84-1.19-1.26C96.33,34.65,96.3,34.63,96.22,34.58z"/>
	<path class="st0" d="M49.19,34.37c-0.08,0.02-0.13,0.02-0.18,0.04c-0.12,0.04-0.15-0.02-0.17-0.12c-0.05-0.25-0.1-0.51-0.18-0.75   c-0.16-0.52-0.52-0.79-1.1-0.81c-0.7-0.03-1.4-0.02-2.1-0.04c-0.16,0-0.21,0.06-0.21,0.22c0,1.19,0,2.38,0,3.56   c0,0.15,0.04,0.23,0.21,0.23c0.68-0.02,1.37-0.03,2.05-0.07c0.3-0.01,0.48-0.21,0.52-0.5c0.02-0.12,0.05-0.24,0.06-0.36   c0.01-0.16,0.09-0.18,0.23-0.18c0.16,0,0.14,0.11,0.14,0.21c0,0.71,0,1.43,0,2.14c0,0.1,0.03,0.22-0.14,0.24   c-0.17,0.02-0.21-0.07-0.22-0.21c-0.01-0.11-0.04-0.23-0.05-0.34c-0.04-0.31-0.24-0.52-0.55-0.53c-0.68-0.02-1.36-0.03-2.04-0.04   c-0.14,0-0.2,0.05-0.2,0.19c0,1.28,0,2.55,0,3.83c0,0.15,0.09,0.19,0.2,0.21c0.62,0.12,1.25,0.19,1.88,0.12   c0.36-0.04,0.73-0.09,1.07-0.2c0.61-0.2,0.89-0.71,1.06-1.3c0.03-0.1,0.07-0.21,0.08-0.31c0.01-0.15,0.08-0.19,0.22-0.18   c0.17,0.01,0.17,0.11,0.15,0.22c-0.09,0.51-0.17,1.01-0.27,1.52c-0.03,0.16-0.09,0.31-0.13,0.47c-0.03,0.14-0.09,0.2-0.25,0.2   c-2.06-0.01-4.12,0-6.18,0c-0.1,0-0.21,0.03-0.22-0.13c-0.01-0.16,0.08-0.18,0.2-0.18c0.11,0,0.23-0.02,0.34-0.02   c0.32-0.02,0.48-0.18,0.5-0.5c0.02-0.32,0.03-0.64,0.03-0.95c0-2.04,0-4.09,0-6.13c0-0.26-0.02-0.52-0.04-0.77   c-0.02-0.3-0.19-0.45-0.49-0.47c-0.14-0.01-0.27-0.03-0.41-0.03c-0.12,0-0.15-0.06-0.15-0.17c0-0.12,0.07-0.14,0.17-0.14   c1.95,0,3.9,0,5.85,0c0.12,0,0.18,0.05,0.19,0.16C49.2,33.09,49.24,33.72,49.19,34.37z"/>
	<path class="st0" d="M35.93,41.78c-0.07-0.21,0.01-0.29,0.21-0.3c0.24-0.01,0.48-0.04,0.72-0.09c0.19-0.04,0.28-0.19,0.3-0.37   c0.04-0.3,0.08-0.61,0.08-0.91c0.01-2.4,0-4.79,0.01-7.19c0-0.19-0.06-0.25-0.24-0.25c-0.49,0.02-0.99,0.01-1.49,0.04   c-0.93,0.06-1.13,0.41-1.31,1.15c-0.04,0.16-0.06,0.33-0.09,0.5c-0.02,0.13-0.08,0.21-0.23,0.2c-0.17-0.01-0.14-0.12-0.14-0.22   c0.03-0.62,0.06-1.24,0.09-1.87c0.01-0.13,0.09-0.18,0.22-0.18c0.53,0,1.06,0,1.59,0c2.02,0,4.04,0,6.05,0c0.05,0,0.11,0,0.2,0   c0.05,0.44,0.11,0.88,0.14,1.31c0.02,0.26,0,0.52-0.01,0.77c0,0.11-0.04,0.17-0.17,0.17c-0.11,0-0.17-0.02-0.19-0.15   c-0.06-0.29-0.14-0.58-0.21-0.87c-0.14-0.55-0.54-0.78-1.06-0.82c-0.56-0.04-1.13-0.03-1.69-0.04c-0.13,0-0.19,0.05-0.19,0.18   c0,0.06,0,0.12,0,0.18c0,2.27,0,4.55,0,6.82c0,0.32,0.02,0.65,0.04,0.97c0.03,0.4,0.23,0.6,0.64,0.62   c0.17,0.01,0.34,0.01,0.51,0.04c0.05,0.01,0.13,0.09,0.13,0.14c0,0.05-0.08,0.15-0.12,0.15c-1.26,0.01-2.51,0-3.77,0   C35.95,41.8,35.95,41.79,35.93,41.78z"/>
	<path class="st0" d="M52.51,41.8c-0.05-0.28-0.05-0.28,0.2-0.31c0.03,0,0.07-0.01,0.1-0.01c0.75,0.03,0.74-0.31,0.75-0.83   c0.03-2.21,0.02-4.41,0.02-6.62c0-0.32-0.03-0.64-0.06-0.95c-0.03-0.29-0.17-0.41-0.47-0.44c-0.11-0.01-0.23-0.02-0.34-0.03   c-0.24-0.03-0.26-0.05-0.19-0.31c0.21,0,0.43,0,0.64,0c0.86,0,1.73,0,2.59,0c0.1,0,0.21-0.02,0.21,0.14c0,0.15-0.08,0.17-0.19,0.17   c-0.12,0-0.23,0.02-0.34,0.03c-0.32,0.02-0.47,0.16-0.5,0.47c-0.03,0.27-0.04,0.54-0.04,0.81c0,2.36,0,4.72-0.01,7.09   c0,0.2,0.08,0.26,0.25,0.29c0.68,0.1,1.36,0.16,2.05,0.08c1.01-0.12,1.49-0.52,1.73-1.44c0.03-0.12,0.06-0.24,0.09-0.35   c0.03-0.12,0.07-0.21,0.23-0.19c0.17,0.02,0.15,0.13,0.14,0.23c-0.04,0.7-0.2,1.38-0.42,2.04c-0.02,0.06-0.14,0.12-0.21,0.12   c-0.37,0.01-0.73,0.01-1.1,0.01c-1.66,0-3.33,0-4.99,0C52.6,41.81,52.56,41.8,52.51,41.8z"/>
	<path class="st0" d="M92.1,32.3c0.5,0,1.01,0,1.51,0c0.1,0,0.21-0.02,0.21,0.14c0,0.15-0.08,0.16-0.2,0.17   c-0.19,0.02-0.39,0.02-0.56,0.08c-0.11,0.04-0.21,0.17-0.25,0.28c-0.06,0.18-0.08,0.39-0.08,0.58c0,2.3,0,4.6,0,6.9   c0,0.21,0.03,0.42,0.06,0.62c0.04,0.25,0.17,0.36,0.42,0.38c0.15,0.01,0.3,0.02,0.45,0.03c0.12,0.01,0.16,0.08,0.13,0.18   c-0.02,0.06-0.1,0.13-0.15,0.13c-1.05,0.01-2.11,0.01-3.16,0c-0.06,0-0.14-0.07-0.16-0.12c-0.03-0.11,0.03-0.18,0.15-0.18   c0.11,0,0.22-0.02,0.32-0.02c0.39-0.01,0.55-0.16,0.59-0.55c0.01-0.14,0.01-0.28,0.01-0.43c0-2.38,0-4.76-0.01-7.14   c0-0.09,0-0.19-0.03-0.28c-0.08-0.32-0.2-0.41-0.53-0.43c-0.12-0.01-0.25-0.01-0.36-0.04c-0.06-0.02-0.14-0.09-0.15-0.16   c-0.03-0.12,0.06-0.14,0.16-0.14C91.04,32.3,91.57,32.3,92.1,32.3z"/>
	<path class="st0" d="M29.74,41.78c-0.06-0.19-0.02-0.29,0.19-0.29c0.13,0,0.26-0.01,0.39-0.03c0.26-0.03,0.41-0.17,0.43-0.43   c0.03-0.36,0.06-0.73,0.06-1.09c0.01-2.06,0.01-4.13,0-6.19c0-0.25-0.04-0.5-0.07-0.75c-0.03-0.2-0.18-0.33-0.39-0.35   c-0.17-0.02-0.34-0.02-0.51-0.05c-0.05-0.01-0.11-0.1-0.12-0.16c0-0.04,0.08-0.13,0.12-0.13c1.1-0.01,2.2-0.01,3.29-0.01   c0.08,0.26,0.06,0.29-0.18,0.31c-0.12,0.01-0.24,0.02-0.37,0.03c-0.27,0.03-0.41,0.17-0.44,0.45c-0.02,0.16-0.03,0.32-0.03,0.49   c0,2.34,0,4.67,0,7.01c0,0.16,0.01,0.31,0.04,0.47c0.04,0.26,0.19,0.4,0.45,0.42c0.15,0.01,0.3,0.03,0.45,0.03   c0.13,0,0.15,0.09,0.12,0.18c-0.01,0.05-0.08,0.13-0.13,0.13c-1.09,0.01-2.17,0-3.26,0C29.78,41.8,29.77,41.79,29.74,41.78z"/>
</g>
</svg>